<?xml version="1.0" encoding="UTF-8"?>
<svg width="18px" height="18px" viewBox="0 0 18 18" version="1.1" xmlns="http://www.w3.org/2000/svg" xmlns:xlink="http://www.w3.org/1999/xlink">
    <!-- Generator: Sketch 47.1 (45422) - http://www.bohemiancoding.com/sketch -->
    <title>Icons 18px / Settings</title>
    <desc>Created with Sketch.</desc>
    <defs></defs>
    <g id="Symbols" stroke="none" stroke-width="1" fill="none" fill-rule="evenodd">
        <g id="Icons-18px-/-Settings">
            <rect id="Rectangle" x="0.0456542969" y="0" width="18" height="18"></rect>
            <g id="icons-18px-/-Settings" transform="translate(0.045654, 0.000000)" stroke="#667680">
                <path d="M16.9852998,7.59919531 L16.9844318,7.59904884 L15.4187558,7.33344308 L15.3278135,7.03982931 C15.2048417,6.64280606 15.047316,6.26211916 14.8561238,5.90059199 L14.7116755,5.62745333 L14.8913536,5.37608543 L15.6348385,4.3359592 C15.8093729,4.09077994 15.7818393,3.75915332 15.5683673,3.54774546 L14.4485343,2.42791247 C14.3311009,2.31047911 14.1798851,2.24742797 14.0167015,2.24742797 C13.8885458,2.24742797 13.7690403,2.28587756 13.6641772,2.36137086 L12.3685411,3.28416208 L12.096057,3.14035104 C11.7120724,2.93769248 11.3174224,2.7749322 10.9159919,2.65484614 L10.6179902,2.56570032 L10.5662547,2.25898307 L10.3557483,1.01097992 C10.3059997,0.714560935 10.052361,0.500037578 9.75156576,0.500037578 L8.16951983,0.500037578 C7.86872464,0.500037578 7.61508591,0.714560935 7.56511376,1.01230081 L7.29567083,2.59179383 L7.00341725,2.68312308 C6.61373146,2.80489989 6.23351306,2.96522239 5.8700353,3.16094119 L5.59465361,3.30922363 L4.3074301,2.3824227 C4.20574458,2.30920913 4.08274012,2.26997495 3.95323591,2.26997495 C3.78919498,2.26997495 3.63630118,2.33350125 3.52081037,2.45105116 L2.39781226,3.57029243 C2.18624782,3.78185687 2.15797624,4.11496989 2.33136426,4.35853878 L3.26090448,5.66454279 L3.11848988,5.93642521 C2.92875951,6.29863774 2.77463089,6.6782992 2.65457925,7.07729436 L2.5651173,7.37462377 L2.25894549,7.42626721 L1.01094234,7.63677359 C0.714523357,7.68652223 0.5,7.94016096 0.5,8.24095616 L0.5,9.82300209 C0.5,10.1237973 0.714523357,10.377436 1.01226324,10.4274082 L2.59175625,10.6968511 L2.6830855,10.9891047 C2.80486231,11.3787905 2.96518481,11.7590089 3.16090361,12.1224866 L3.30907504,12.3976621 L3.12663185,12.6514156 L2.38770848,13.6791473 C2.21317409,13.9243265 2.24070766,14.2559532 2.4541797,14.467361 L3.57401268,15.587194 C3.69144605,15.7046274 3.84266189,15.7676785 4.00584551,15.7676785 C4.13400116,15.7676785 4.25350665,15.7292289 4.35850121,15.653642 L5.66471268,14.7239541 L5.93671517,14.8666881 C6.28151713,15.0476238 6.65064906,15.1989504 7.04074617,15.3206321 L7.3344721,15.412253 L7.385055,15.7157504 L7.5953999,16.9778218 C7.64514854,17.2742407 7.89878727,17.4887641 8.19958246,17.4887641 L9.78538622,17.4887641 C10.0861814,17.4887641 10.3398201,17.2742407 10.3897153,16.9769537 L10.655321,15.4112777 L10.9489348,15.3203354 C11.345958,15.1973636 11.7266449,15.039838 12.0881721,14.8486457 L12.3613108,14.7041974 L12.6126787,14.8838755 L13.6549916,15.6289259 C13.7566771,15.7021395 13.8796816,15.7413737 14.0091858,15.7413737 C14.1723694,15.7413737 14.3235853,15.6783226 14.4410186,15.5608892 L15.5608516,14.4410562 C15.7724161,14.2294918 15.8006876,13.8963787 15.6273932,13.6529413 L14.7052235,12.3581778 L14.8476897,12.0861969 C15.0461525,11.7073134 15.2043703,11.3270662 15.319472,10.9479074 L15.4096145,10.6509677 L15.7157128,10.5999513 L16.9777842,10.3896064 C17.2742032,10.3398577 17.4887265,10.086219 17.4887265,9.7854238 L17.4887741,8.19648197 C17.4928573,7.90044754 17.2812916,7.64887224 16.9852998,7.59919531 Z M5.67730491,2.13649882 L5.92513775,2.31493847 L5.63298539,2.72070564 L5.39593547,2.28047009 C5.48878986,2.23047157 5.58260815,2.18246776 5.67730329,2.13649765 Z" id="Shape" fill-rule="nonzero"></path>
                <circle id="Oval-2" cx="8.99441654" cy="8.99440084" r="3.5"></circle>
            </g>
        </g>
    </g>
</svg>