<svg id="Layer_1" data-name="Layer 1" xmlns="http://www.w3.org/2000/svg" viewBox="0 0 18 18"><title>History</title><g id="Symbols"><rect id="Rectangle" width="18" height="18" fill="none"/><g id="history"><path id="Shape" d="M6.93.76A8.5,8.5,0,1,0,17.09,11.63" fill="none" stroke="#047ec3" stroke-linecap="round"/><path d="M17.5,9A8.51,8.51,0,0,0,9,.5H9" fill="none" stroke="#047ec3" stroke-linecap="round" stroke-linejoin="round" stroke-dasharray="1 3"/></g><path id="Rectangle-2" d="M8.5,4h0a.5.5,0,0,1,.5.5v5a.5.5,0,0,1-.5.5h0A.5.5,0,0,1,8,9.5v-5A.5.5,0,0,1,8.5,4Z" fill="#047ec3" fill-rule="evenodd"/><path d="M12.89,9.5h0a.5.5,0,0,1-.5.5H8.5A.5.5,0,0,1,8,9.5H8A.5.5,0,0,1,8.5,9h3.89A.5.5,0,0,1,12.89,9.5Z" fill="#047ec3" fill-rule="evenodd"/></g></svg>