<?xml version="1.0" encoding="UTF-8"?>
<svg width="18px" height="18px" viewBox="0 0 18 18" version="1.1" xmlns="http://www.w3.org/2000/svg" xmlns:xlink="http://www.w3.org/1999/xlink">
    <!-- Generator: Sketch 47.1 (45422) - http://www.bohemiancoding.com/sketch -->
    <title>Icons 18px / Notification</title>
    <desc>Created with Sketch.</desc>
    <defs></defs>
    <g id="Symbols" stroke="none" stroke-width="1" fill="none" fill-rule="evenodd">
        <g id="Icons-18px-/-Notification">
            <rect id="Rectangle" x="0" y="0" width="18" height="18"></rect>
            <g id="notification" transform="translate(1.335938, 0.000000)">
                <path d="M13.9534327,12.7026279 L13.6205605,12.5845733 L13.6205605,8.80435547 C13.6205605,6.06365688 11.742983,3.68900988 9.11891981,3.02783847 L8.51664027,2.87608525 L8.79351062,2.32010639 C8.87959096,2.14724985 8.92491602,1.95751245 8.92491602,1.76090625 C8.92491602,1.06607206 8.35885176,0.5 7.66404492,0.5 C6.96924198,0.5 6.40317383,1.06606816 6.40317383,1.76087109 C6.40317383,1.95747729 6.44849889,2.14721469 6.53457923,2.32007123 L6.81144957,2.8760501 L6.20917003,3.02780331 C3.58511963,3.68897151 1.7075293,6.06364414 1.7075293,8.80432031 L1.7075293,12.5845382 L1.3746571,12.7025928 C0.875207901,12.8797247 0.533626953,13.3542184 0.533626953,13.8912539 C0.533626953,14.5860568 1.09969511,15.152125 1.79449805,15.152125 L5.19672693,15.152125 L5.27826662,15.5522951 C5.50731756,16.6764021 6.50353569,17.5 7.66404492,17.5 C8.82453584,17.5 9.8207465,16.6764169 10.0498639,15.552303 L10.1314212,15.1521602 L13.533627,15.1521602 C14.2284299,15.1521602 14.794498,14.586092 14.794498,13.891312 C14.7944734,13.3542592 14.4528809,12.8797595 13.9534327,12.7026279 Z" id="Shape" stroke="#667680" fill-rule="nonzero"></path>
                <polygon id="Rectangle-2" fill="#667680" points="4.6640625 14.6529694 10.6640625 14.6529694 10.6640625 15.6529694 4.6640625 15.6529694"></polygon>
            </g>
        </g>
    </g>
</svg>