<svg id="Layer_1" data-name="Layer 1" xmlns="http://www.w3.org/2000/svg" viewBox="0 0 18 18"><title>Notification</title><g id="Symbols"><rect id="Rectangle" width="18" height="18" fill="none"/><g id="notification"><path id="Shape" d="M15.29,12.7,15,12.58V8.8A6,6,0,0,0,10.45,3l-.6-.15.28-.56a1.18,1.18,0,0,0,.13-.56,1.26,1.26,0,1,0-2.52,0,1.18,1.18,0,0,0,.13.56l.28.56L7.55,3A6,6,0,0,0,3,8.8v3.78l-.33.12a1.26,1.26,0,0,0,.42,2.45h3.4l.08.4a2.44,2.44,0,0,0,4.78,0l.08-.4h3.4a1.26,1.26,0,0,0,.42-2.45Z" fill="none" stroke="#047ec3"/><polygon id="Rectangle-2" points="6 14.65 12 14.65 12 15.65 6 15.65 6 14.65" fill="#047ec3" fill-rule="evenodd"/></g></g></svg>